# xmcd
# 
# Track frame offsets:
#     182
#     9437
#     18167
#     34307
#     47240
#     69135
#     83742
#     105817
#     123932
#     137530
#     150605
#     167442
#     182690
#     208467
#     220215
#     234552
#     248790
#     270585
#     284555
#     299055
#     318252
# 
# Disc length: 4495
# 
# Revision: 22
# Processed by: cddbd v1.5.2PL0 Copyright (c) Steve Scherf et al.
# Submitted via: fre:ac v1.0.31
# 
DISCID=24118d15
DTITLE=The Police - Message in a Box: The Complete Recordings Disc 1
DYEAR=1993
DGENRE=Rock/Pop
TTITLE0=Fallout
TTITLE1=Nothing Achieving
TTITLE2=Dead End Job
TTITLE3=Next to You
TTITLE4=So Lonely
TTITLE5=Roxanne
TTITLE6=Hole in My Life
TTITLE7=Peanuts
TTITLE8=Can't Stand Losing You
TTITLE9=Truth Hits Everybody
TTITLE10=Born in the 50's
TTITLE11=Be My Girl - Sally
TTITLE12=Masoko Tanga
TTITLE13=Landlord (Live)
TTITLE14=Next to You (Live)
TTITLE15=Landlord
TTITLE16=Message in a Bottle
TTITLE17=Reggatta De Blanc
TTITLE18=It's Alright For You
TTITLE19=Bring on the Night
TTITLE20=Deathwish
EXTD=YEAR: 1993
EXTT0=YEAR: 1977
EXTT1=YEAR: 1977
EXTT2=YEAR: 1978
EXTT3=YEAR: 1978
EXTT4=YEAR: 1978
EXTT5=YEAR: 1978
EXTT6=YEAR: 1978
EXTT7=YEAR: 1978
EXTT8=YEAR: 1978
EXTT9=YEAR: 1978
EXTT10=YEAR: 1978
EXTT11=YEAR: 1978
EXTT12=YEAR: 1978
EXTT13=YEAR: 1979
EXTT14=YEAR: 1979
EXTT15=YEAR: 1979
EXTT16=YEAR: 1979
EXTT17=YEAR: 1979
EXTT18=YEAR: 1979
EXTT19=YEAR: 1979
EXTT20=YEAR: 1979
PLAYORDER=
